/* XPM */
static const char *bitcoin64_xpm[] = {
/* columns rows colors chars-per-pixel */
"64 64 532 2",
".  c Black",
"c+ c #DCB47A",
"T  c #D9CB84",
"o. c #F8F5E6",
"hO c #DCD289",
"{. c #DCD28A",
"i. c #F8F8E9",
",. c #DFD990",
"R. c #DFD992",
"2X c #DCCF93",
"#O c #E2DD9B",
"1  c #E2DD9C",
"=X c #FEFDF9",
"Qo c #D9C295",
"a. c #FEFDFA",
"yO c #DFD39D",
"). c #69532B",
"j+ c #DFDCA3",
"(. c #72592F",
")O c #785E31",
" O c #E5E1A6",
"Eo c #E2D7A3",
"k. c #E5E1A8",
"(  c #725F35",
",X c #8A6A38",
";o c #E5DBAC",
">X c #96713C",
"oX c #E8E5B0",
"V+ c #E8E5B2",
"sX c #A87D41",
"9. c #BA8949",
"N  c #BA8C4B",
"-O c #E5D8B6",
"7o c #A8894E",
"U. c #C68A4C",
"_  c #BD904F",
"bO c #C68A4D",
"VX c #B18F51",
"0  c #EBE9BF",
"}X c #C09754",
"_O c #C9854E",
"_o c #EBE3BF",
"B  c #C09755",
"$+ c #C39B58",
"MO c #CF8A51",
"wo c #C69355",
"FO c #C39E5A",
"VO c #C6A25F",
"}o c #EEEAC8",
"EO c #C6A561",
"To c #C39B5E",
"#X c #EEEAC9",
"Oo c #C0A664",
"qo c #C9AC67",
".. c #EEE7CD",
"5X c #CCB06B",
"d+ c #D89662",
":  c #CFB771",
"z  c #CFB772",
"M. c #BDAE71",
"<O c #F4F2D8",
">  c #F4F2D9",
"oO c #F1E8D7",
"wX c #D2BE77",
"b  c #D2BE7A",
"n  c #CCBF7B",
"MX c #D5C27C",
"t  c #D8C981",
"6. c #D8C982",
"Vo c #DBD088",
"5O c #DBD08A",
"<. c #DED78E",
"8O c #FAFAEE",
"I  c #DED790",
"yX c #E1DB94",
"X  c #E1DB95",
">. c #E1DB96",
"l. c #E4DFA1",
";O c #E1D8A1",
")o c #E4DFA3",
"n. c #745B30",
".+ c #866736",
"[. c #E7E3AC",
"W. c #E7E3AD",
"}  c #D8CCA8",
"fo c #98733C",
"w  c #E7E3AE",
"DX c #98733D",
"(X c #AA7F42",
"{o c #E4D6B0",
"V. c #EAE7B5",
"aX c #B38546",
"/  c #8C7846",
"h. c #EAE7B6",
"AX c #B98A49",
"4  c #EAE7B8",
"KO c #B68C4C",
"1o c #BF894A",
"=+ c #BF9251",
"uo c #C8894E",
"'O c #CB8A4F",
",  c #EDEBC2",
"<+ c #C29C58",
"r. c #EDEBC3",
"N+ c #DEDDC1",
"PX c #C29C59",
"f. c #EDEBC4",
"kX c #C29C5A",
"vO c #D48A53",
"~O c #C58E57",
"IO c #EDE8C6",
":o c #C29C5C",
";  c #C5A35F",
".o c #C8A762",
"%o c #C8A763",
"jX c #C8AA65",
"Xo c #C8AA66",
"vX c #CBAE69",
"$o c #CBAE6A",
"Ko c #F0ECD1",
"[o c #F0ECD3",
")X c #CEB570",
"=  c #D1BC76",
"[  c #B09F72",
"dO c #D1BC79",
"pO c #D4C07A",
"u  c #D7C780",
"to c #D7A678",
"O  c #DACE86",
"3. c #DACE87",
"aO c #DDD58D",
"!X c #6D572E",
"co c #6A562F",
"8. c #766338",
"X+ c #94703B",
"T. c #DACEAA",
"dX c #9D763E",
"Zo c #A67C41",
"K. c #E9E5B2",
"-. c #E9E5B3",
"SX c #AF8244",
"do c #BB8949",
"|  c #E3D7B4",
"}O c #BE8A4A",
"^X c #BB8F4D",
"@O c #ECE9BC",
"g. c #ECE9BD",
"]O c #C78A4D",
"KX c #BE9351",
"F  c #ECE9BE",
"8  c #ECE9BF",
"`O c #CA884F",
"LX c #C19A57",
"BX c #A39057",
"2+ c #C79355",
"cO c #D08A51",
" . c #E9DFC0",
"9o c #A3935A",
"&o c #C4A15D",
"&. c #EFEDC8",
"H  c #EFEDC9",
"IX c #C7A561",
"~. c #EFEDCA",
"YX c #CAAC67",
"LO c #CAAC68",
"%X c #EFEACE",
"0o c #CDB36D",
"9X c #CDB36F",
"Wo c #D0BA74",
"i+ c #D6B372",
">+ c #D3BE78",
"WX c #D0BD78",
"tO c #D6C57D",
"D. c #F5F5E0",
"Q  c #D6C57E",
"M+ c #DCA373",
"+O c #F5F2E0",
"NX c #D6C57F",
"rX c #D9CC84",
"<  c #D9CC85",
"r+ c #D9C988",
"2. c #DCD38B",
"`o c #F8F9EB",
",O c #F8F9EC",
"w. c #D9CF8C",
"Z+ c #DFBC86",
"c. c #D0C68D",
"p. c #FBFAF0",
"3X c #DFD792",
"O. c #FBFAF1",
"qO c #DCD093",
"1O c #DFD795",
"I+ c #DFD79B",
"!o c #FEFEFB",
"U+ c #DFDA9E",
"+. c #FEFEFC",
"E. c #E2DB9E",
"F+ c #E2DB9F",
"(O c #6C552D",
"6O c #E5E2A9",
"0. c #846636",
"mo c #8D6C39",
"gX c #8A6B3A",
"3O c #E5DCAC",
"`  c #96723C",
"no c #A27940",
"iX c #907341",
"ko c #B18445",
"J  c #EBE7B8",
"Po c #EBE7B9",
"n+ c #DFDDB8",
"L+ c #DFDDB9",
"b. c #C0894B",
"YO c #BD914F",
"Z  c #E5D6B7",
"po c #C38A4C",
"{X c #BD9150",
"`. c #CC8A4F",
"CX c #C09855",
"mO c #CC8A50",
".O c #EEEBC5",
"zX c #C39F5B",
"jo c #D58A53",
",+ c #C39C5C",
"#+ c #C6975A",
"s  c #C6A35F",
"=O c #EEEBC9",
"/O c #C39C5F",
"^o c #F1EFCF",
"]  c #C3A566",
"G  c #F1EFD0",
"GX c #CCB16C",
"h  c #CFB872",
"nX c #CFB873",
"l+ c #F4F3D9",
"s. c #F4F3DA",
"x+ c #DB9E6C",
"!  c #D5C37C",
"7. c #D2C27C",
"E  c #D8CA82",
"~o c #F7F7E4",
"R  c #D8CA83",
"uO c #D8CA84",
"9  c #F7F7E5",
"y+ c #DBC583",
"&O c #F7F7E6",
"F. c #F7F7E7",
"r  c #DBD189",
"eO c #DBD18A",
"9O c #DED88F",
"0O c #E1DC98",
"e  c #E1DC9A",
"So c #C6BB93",
"G+ c #E1CA98",
"xo c #68522B",
"8o c #65512B",
":. c #E4E0A5",
"XX c #E4E0A6",
"zo c #775D31",
"<X c #806334",
"lo c #896937",
"Ao c #926F3A",
"j. c #E7E4AE",
"d  c #A47B41",
"/X c #B68747",
"'X c #BC8949",
"]X c #B98B4A",
"^O c #BF8A4A",
"D  c #EAE5B9",
"so c #BC894A",
"5o c #BC8F4D",
"&  c #BC8F4E",
"@+ c #C28B4D",
"io c #C5894C",
"xO c #C88A4D",
"1+ c #C88A4E",
"7X c #BF9653",
":O c #EDE9C3",
"-o c #D18A52",
"|X c #C29D5A",
"GO c #C5A15D",
"ZO c #C8A864",
"^. c #AA9261",
"i  c #CBAF6A",
"TX c #CBAF6B",
"$O c #EDE3CF",
"c  c #CEB670",
"#o c #CEB671",
"f+ c #D7AA6E",
"FX c #D1BA74",
"kO c #D1BA75",
"fO c #D1BD76",
"%O c #F3F1DA",
"&X c #F3EEDA",
"~  c #D4C17A",
"@  c #D4C17B",
" X c #D4C17C",
"4+ c #CEB379",
"+  c #D7C880",
"B. c #F6F5E1",
"e+ c #F6F2E2",
"go c #D1C983",
"tX c #DACF87",
"Yo c #DAC686",
"z. c #E0DA93",
"Fo c #E0DA94",
"uX c #C8BD8F",
"Uo c #E0D79C",
"q  c #E3DE9E",
"L  c #E3DE9F",
"*O c #E3DEA0",
"PO c #735A2F",
"Mo c #7C6033",
"Do c #E6E2A9",
"*  c #E6E2AA",
"$  c #856636",
"JO c #97723C",
"OO c #E0CBA8",
":X c #A0783F",
"'  c #A97E42",
"UO c #B58848",
"*+ c #BB8A49",
"I. c #857548",
"pX c #BB8D4C",
"C  c #E3D2B4",
",o c #C48A4C",
"!O c #BE9451",
"N. c #ECEABE",
"Ro c #ECEABF",
"lX c #BE9452",
"bo c #CA894F",
"*. c #ECEAC1",
"No c #8E7E53",
"=o c #CD8A50",
"ho c #CA8F53",
"JX c #C1985B",
"z+ c #D68D57",
"|o c #EFEECA",
"7+ c #CD995D",
"AO c #C7A662",
"Z. c #EFEECB",
"`X c #C49C60",
"3+ c #CDA865",
"oo c #CAAD68",
"jO c #CAAD69",
"$X c #EFEBCF",
"q+ c #D3A466",
"bX c #CDB16C",
"w+ c #D3A769",
"lO c #D0B872",
"S+ c #DDDCD3",
"l  c #D0B873",
"mX c #D3BF78",
"^  c #D3BF79",
"m+ c #DCA473",
"-X c #F2ECE0",
"4. c #D9CD85",
"t+ c #D9CD86",
"L. c #BEB281",
"U  c #DCD18A",
"rO c #DCD48C",
"H+ c #DFC087",
"x. c #DFD88F",
"'. c #D6C68A",
"Q. c #FBFBF0",
"XO c #FBFBF1",
"3  c #FBFBF2",
"SO c #E2DC97",
"sO c #E2DC9A",
"Bo c #E5E0A3",
"P. c #6C562D",
"s+ c #E5DDA5",
"/o c #E2D3A7",
"ro c #E5C8A3",
"@o c #7E683B",
"Io c #E8E4AF",
"K  c #E8E4B1",
"1X c #846D41",
"eo c #E5D7B0",
"%+ c #B48647",
"RO c #BA8849",
"2o c #BD894A",
"=. c #EBE8BA",
"e. c #EBE8BB",
"ZX c #BD9250",
"nO c #C98A4E",
"C. c #EEECC5",
"hX c #D28A52",
" + c #C39D5B",
"m. c #AB955B",
"xX c #C6A460",
"m  c #C9AB66",
"@X c #F1EDCD",
"8X c #C9AB67",
"%. c #F1F0D0",
">o c #CC9A62",
"CO c #CCAF6A",
"5  c #F1F0D1",
"p+ c #F1EDD2",
"iO c #CCB26D",
"vo c #CFB36F",
"|. c #CFB671",
"x  c #CFB672",
"EX c #D2BD76",
"p  c #D2BD77",
"8+ c #D5C17B",
"}. c #D5C47D",
"D+ c #DCDDDD",
"eX c #D8C881",
"5. c #D8CB83",
"4X c #D8CB84",
"A+ c #DEA97A",
"Y  c #DBCF87",
"0+ c #D5BE84",
"QO c #CFB082",
"_. c #CFC88A",
"]o c #FAF9EC",
"y  c #DED68E",
"@. c #FAF9ED",
"a+ c #E1DA95",
"V  c #DED393",
"P  c #E1DA96",
"h+ c #DED998",
".X c #E1DA98",
"!. c #FDFDF7",
"'o c #FDFDF8",
"H. c #FDFDF9",
"2O c #E4DEA0",
"#  c #6B542C",
"v. c #6B572F",
"{  c #CFC5A0",
"/. c #7A5F32",
"HO c #836536",
"P+ c #DEDCAC",
"b+ c #DEDCAD",
"4o c #B98948",
"|O c #B98949",
"3o c #BC8A49",
"S  c #E7DFB7",
"<o c #C2894B",
";+ c #C28C4D",
"q. c #A48B52",
"HX c #BF9754",
"++ c #CE8A50",
"zO c #C29B57",
"6o c #C29B58",
"k+ c #EDEAC4",
"5+ c #CE9055",
"o+ c #D18852",
"_X c #C29E5B",
"u+ c #D18E56",
"M  c #C5A25E",
"6X c #C5A25F",
"K+ c #DEDCC6",
"+X c #F0EECB",
"d. c #F0EECC",
"Lo c #F0EECD",
"UX c #C8A965",
"B+ c #DEDCCA",
"{O c #C89D62",
"t. c #F0EECE",
"Co c #D1AF6B",
"Ho c #CEB46E",
"a  c #CEB46F",
"g+ c #CEB771",
"A. c #F3F2D6",
"v  c #CEB470",
"WO c #CEB772",
"$. c #F3F2D7",
"wO c #F3EFD7",
"qX c #D1BB75",
"9+ c #F3F2DB",
"X. c #F3EFDA",
"NO c #D4C27B",
"j  c #D4C27C",
"6  c #F6F6E1",
"W  c #D7C67F",
">O c #F6F6E2",
"u. c #F6F6E3",
"o  c #DDD48B",
"1. c #DDD48C",
"*X c #F9F7EB",
"G. c #FCFBF3",
"2  c #FCFBF5",
"J. c #FFFFFE",
"-  c #64502A",
"   c #FFFFFF",
"+o c #6D5930",
"4O c #E0D2A5",
";. c #E6E3AB",
"TO c #DDCEA6",
"fX c #916E3A",
"QX c #7F6B3E",
"%  c #A37A40",
"Jo c #AC8043",
"C+ c #E9E7B7",
"(o c #E9E4B6",
"&+ c #BE894A",
"A  c #E6DAB6",
"ao c #C18A4B",
"[X c #BB8E4D",
"DO c #B89050",
"-+ c #C7894D",
"[O c #C18D4F",
"*o c #C19050",
"f  c #BE9251",
"yo c #CA8A4E",
"~X c #BE9553",
"6+ c #CA8A4F",
"BO c #BB9755",
")  c #C19956",
"O+ c #D38A52",
";X c #B58F58",
":+ c #C79E5C",
"OX c #EFECC7",
" o c #C4A05D",
"g  c #C7A763",
"]. c #ECE5CA",
"cX c #C7A764",
"gO c #CAAB67",
"y. c #F2F0D3",
"RX c #CDB26D",
"7  c #F2F0D4",
"J+ c #DDDDD2",
"0X c #D0B973",
"k  c #D0B974",
"S. c #F5F4DB",
"7O c #F5F4DC",
"v+ c #D3C07A",
"Y. c #BBAC77",
"#. c #F5F4DE",
"Go c #D6C17C",
/* pixels */
"                                                                                                                                ",
"        . . . . . . . . . . . . . . . . . . . . . . X o O + @ . . . # $ % & . . . . . . . . . . . . . . . . . . . . . . . .     ",
"        . . . . . . . . . . . . . . . . . . . . . * X o O + @ = . - # $ % & ; : . . . . . . . . . . . . . . . . . . . . . .     ",
"        . . . . . . . . . . . . . . . . . . . > , * X o O + @ = . - # $ % & ; : < 1 . . . . . . . . . . . . . . . . . . . .     ",
"        . . . . . . . . . . . . . . . . . 2 3 > , * X o O + @ = . - # $ % & ; : < 1 4 . . . . . . . . . . . . . . . . . . .     ",
"        . . . . . . . . . . . . . . . 5 6 2 3 > , * X . . + @ = . - # $ . . ; : < 1 4 7 3 . . . . . . . . . . . . . . . . .     ",
"        . . . . . . . . . . . . . . 8 5 6 2 3 > , . . . . + @ = . - # $ . . . : < 1 4 7 3 9 0 . . . . . . . . . . . . . . .     ",
"        . . . . . . . . . . . . q w 8 5 6 2 3 . . . . . O + @ = . - # $ . . . . . 1 4 7 3 9 0 e r . . . . . . . . . . . . .     ",
"        . . . . . . . . . . t y q w 8 5 6 2 . . . . . o O + @ = . - # $ % & . . . . . 7 3 9 0 e r u . . . . . . . . . . . .     ",
"        . . . . . . . . i = t y q w 8 5 . . . . . * X o O + @ . . - # $ % & ; : . . . . . 9 0 e r u p a . . . . . . . . . .     ",
"        . . . . . . . s i = t y q w . . . . . > , * X o O + @ . . . # $ d f g h j k l z x c v b n u p a m M . . . . . . . .     ",
"        . . . . . N B s i = t V C Z A S D F G G H , J K * L P I o U Y < T R E R t W Q ! ~ ^ p / ( u p a m M ) _ . . . . . .     ",
"        . . . ` ' N B ] [ { } |  ...X.o.O.+.2 @.9 #.$.%.&.*.=.-.;.:.q >.,.<.1.2.r 3.4.5.6.7.8.- - . p a m M ) _ 9.. . . . .     ",
"        . . 0.` ' N B s q.w.e.r.&.t.y.> #.u.i.p.2 +.a.3 i.6 s.y.d.f.g.h.j.k.l.e z.x.y o c.v.- - . . . . m M ) _ 9.b.. . . .     ",
"        . n.0.` ' N B . m.M.N.B.g.V.e.*.C.Z.5 A.S.D.F.@.G.H.J.2 @.9 #.$.%.&.*.=.K.;.:.L.P.- - I.. . . . . M ) _ 9.b.U.. . .     ",
"        . n.0.` ' N . . . Y.T.J.C.R.E.* W.-.4 F r.&.t.y.> #.u.i.Q.!.+.a.3 i.6 s.y.~.^.$ /.(.)._.r u . . . . . _ 9.b.U.`.. .     ",
"        - n.0.` ' . . . . = '.].[.{.}.|. X.Xl.XX* oXh.e.*.C.OXd.+X@X#X$X%X&X*X=X-X;X:X>X,X<X1Xe r u p a . . . . 9.b.U.`.. .     ",
"        - n.0.` . . . . i = t 2X3X4Xp 5X6X7X8Xi 9Xl 0XqXwX@ Q eXrXtX2.y yXl.w uXiXpXaXsXdXfXgXe r u p a m . . . . b.U.`.hX.     ",
"        - n.0.. . . . s i = t y @ Q : jXkXlXzXM xXcX8XvXbXa nX= mXMXNX6.4.tXBX- VXCXZXAXSX% DX. r u p a m M . . . b.U.`.hX.     ",
"        - n.0.. . . B s i = t . c FXGXxXHXJXKX7XLXPXzX6XIXUXYXTXRXc k EXWXQX- !Xm s PX~X^X/X(X. . . p a m M . . . b.U.`.hX.     ",
"        - n.0.. . . B s i = . . . )Xm _X`X'X9.]X[X{XlX}XLX|X oxX.oXoooOo+o- - @o#o$o%o&oLX*o=o-o. . . a m M ) . . . U.`.hX.     ",
"        - n.0.. . . B s i . . . . w ;o:o>o,o<o1o2o3o4oN 5oZX~XCX6ozX7o8o- - - 9oMXqX0oqoxXwo=o-o. . . a m M ) _ 9.b.U.`.hX.     ",
"        - n.0.. . . B s i . . . q w 8 eorotoyouoiopoao1osodo. . . fo$ n.- - - go3.u ^ h 5Xho=o-ojo. . a m M ) _ 9.b.U.`.hX.     ",
"        - n.0.. . . B s i . . . q w 8 5 6 . . . . . . . . . . . . kodXlozoxocoq z.o rX}.vobo=o-o. . . . m M ) _ 9.b.U.`.hX.     ",
"        - n.0.. . . B s i . . . q w 8 5 . . . . . . . . . . . . . lX/XnomoMoNoW.Boe ,.VoCobo=o-o. . . . . . . . . . . . . .     ",
"        - n.0.. . . B s i . . . q w 8 . . . . . . . . . . . . . GXs HX]XZoAoSog.-.DoL FoGobo=o. . . . . . . . . . . . . . .     ",
"        - n.0.. . . B s i . . . q w 8 . . . . . . . . . . . . . @ Ho.oLX[XJoKoLof.PoIoUoYo. . . . . . . . . . . . . . . . .     ",
"        - n.0.. . . B s i . . . q w 8 . . . . . . . . . . . . . 1.Q : Xo|XToi.#.7 H RoEo. . . . . . . . . . . . . . . . . .     ",
"        - n.0.. . . B s i . . . q w 8 . . . . . . . . . . . . . q y + WoooQo!op.~os.^o/o. . . . . . . . . . . . . . . . . .     ",
"        - n.0.. . . B s i . . . q w 8 . . . . . . . . . . . . (oK.)o,.4Xp _o`oa.'o]o[o{o. . . . . . . . . . . . . . . . . .     ",
"        - n.0.. . . B s i . . . q w 8 . . . . . . . . . . . . }o|o4  OX 3..O7 6 XOJ.oOOO. . . . . . . . . . . . . . . . . .     ",
"        - n.0.. . . B s i . . . q w 8 . . . . . . . . . . . . +O6 ^o@O* #OoXF +X> F.$O. . . . . . . . . . . . . . . . . . .     ",
"        - n.0.. . . B s i . . . q w 8 . . . . . . . . . . . . %Oa.&O7 *.*O#Ok.h.r.=O-O. . . . . . . . . . . . . . . . . . .     ",
"        - n.0.. . . B s i . . . q w 8 . . . . . . . . . . . ;O:O>OJ.,O<O1Oy z.2OW.3O4O. . . . . . . . . . . . . . . . . . .     ",
"        - n.0.. . . B s i . . . q w 8 . . . . . . . . . . . 5O6Of.7O!.8O4.Voo 9O0OqO. . . . . . . . . . . . . . . . . . . .     ",
"        - n.0.. . . B s i . . . q w 8 . . . . . . . . . . . E ,. OF A.wOu R O eOrO+ . . . . . . . . . . . . . . . . . . . .     ",
"        - n.0.. . . B s i . . . q w 8 . . . . . . . . . . WotOVo<.l.4 yO@ Q eXrXuO}.. . . . . . . . . . . . . . . . . . . .     ",
"        - n.0.. . . B s i . . y q w 8 . . . . . . . . . . iOpOt 3.aOsOdO= ^ ! W MXfO. . . . . . . . . . . . . . . . . . . .     ",
"        - n.0.. . . B s i = t y q w 8 . . . . . . . . . . gOWo~ u 4.hO0o#ok p ~ = . . . . . . . . . . . . . . . . . . . . .     ",
"        - n.0.. . . B s i = t y q w . . . . . . . . . . . g 0o0X^ NX@ jOGXa h kOlO. .  ozO~X& AXsob.ioxO`.cOvO. . bOnOmOMOhX    ",
"        - n.0.. . . B s i = t y . . . LXg a NO. . . . . BOVO8XbXh p COZO8X$oRX)XHoYXAO ozO~X& AXsob.ioxO`.cOvO. . bOnOmOMOhX    ",
"        - n.0.. . . B s i = t . . Jo[XLXg a NOVoSO. . . DOFOxXXo5Xc GO; AOjXoobXRXYXAO ozO~X& AXsob.ioxO`.cOvO. pobOnOmOMOhX    ",
"        - n.0.. . . . . . . . HOJOJo[XLXg a NOVoSO6Oe.. KOB |X; ZOLOzO_X&oxXZO5XRXYXAO ozO. . . . . ioxO`.cO. . pobOnOmOMOhX    ",
"        - n.0.. . . . . . . POHOJOJo[XLXg a NOVoSO6Oe.IOUOYOHXPXM zX7X) PXzXAOiORXYXAO. . . . . . b.ioxO`.cO. . . bOnOmOMOhX    ",
"        - n.0.. . . . . . - POHOJOJo[X. . . . VoSO6Oe.TOROAX& ~XLXZXYOlXHXLXEOWORXYX. . . . . AXsob.ioxO`.. . . . bOnOmOMO.     ",
"        - n.0.. . . . . . - POHOJOJo[X. . . . . . 6Oe.QOao2o4o[X!O4oN 5oZX~Xg nX. . . . . ~X& AXsob.ioxO. . . . pobOnOmO. .     ",
"        . . . . . . . . . . POHOJOJo[XLXg . . . . . e.~OU.<o^O9./OsodoAXpXlX o. . . . . zO~X& AXsob.io. . . . b.pobOnOmO. .     ",
"        . . . - (O)O. . . . . HOJOJo[XLXg a NO. . . _O`O'O]Opo[O{Ob.}O'X|O~X +. . . AO ozO~X& AXso. . . . . }Ob.pobOnO. . .     ",
"        . . . - (O)O.+X+. . . . . Jo[XLXg a NOVo. . o+O+++]O@+2o#+,o<o1o2o$+$o. RXYXAO ozO~X& . . . . . . do}Ob.pobOnO. . .     ",
"        . . . - (O)O.+X+% %+. . . . . LXg a NOVoSO6O&+*+4o]X[X_ =+-+iopo;+:+>+nXRXYXAO ozO~X. . . . . & ]Xdo}Ob.pobO. . . .     ",
"        . . . . (O)O.+X+% %+& . . . . . . a NOVoSO6Oe.,+7X) <+FO&o'O1+bO2+3+>+nXRXYXAO o. . . . . CX!O& ]Xdo}Ob.. . . . . .     ",
"        . . . . . . .+X+% %+& ) 6X. . . . . NOVoSO6Oe.Lo4+.oUXYXi 5+`.6+7+8+>+nXRXYX. . . . .  oPXCX!O& ]Xdo}O. . . . . . .     ",
"        . . . . . . . . % %+& ) 6XYX#o. . . . . SO6Oe.Lo9+0+nXqXwXq+cO=ow+Q >+nX. . . . . . xX oPXCX!O& ]X. . . . . . . . .     ",
"        . . . . . . . . . %+& ) 6XYX#o~ 5.. . . . . e.LoD.e+r+R t+y+O+u+i+Q >+. . . . . jOUXxX oPXCX!O. . . . . . . . . . .     ",
"        . . . . . . . . . . . ) 6XYX#o~ 5.y . . . . . . D.2 p+a+2Os+jod+f+. . . . . g+RXjOUXxX oPX. . . . . . . . . . . . .     ",
"        . . . . . . . . . . . . . YX#o~ 5.y h+j+. . . . . . XOk+l+F.z+x+c+. . . v+= g+RXjOUXxX o. . . . . . . . . . . . . .     ",
"        . . . . . . . . . . . . . . . ~ 5.y h+j+b+n+. . . . . . s.#.m+M+. . . Q v+= g+RXjOUX. . . . . . . . . . . . . . . .     ",
"        . . . . . . . . . . . . . . . . 5.y h+j+b+n+N+B+. . . . V+C+Z+A+. 3.6.Q v+= g+RX. . . . . . . . . . . . . . . . . .     ",
"        . . . . . . . . . . . . . . . . . . h+j+b+n+N+B+S+D+. . . F+G+H+o 3.6.Q v+= . . . . . . . . . . . . . . . . . . . .     ",
"        . . . . . . . . . . . . . . . . . . . . b+n+N+B+S+D+J+K+L+P+I+,.o 3.6.Q v+. . . . . . . . . . . . . . . . . . . . .     ",
"        . . . . . . . . . . . . . . . . . . . . . . N+B+S+D+J+K+L+P+U+,.o 3.6.. . . . . . . . . . . . . . . . . . . . . . .     ",
"        . . . . . . . . . . . . . . . . . . . . . . . B+S+D+J+K+L+P+U+,.o . . . . . . . . . . . . . . . . . . . . . . . . .     ",
"                                                                                                                                ",
"                                                                                                                                "
};
