/* XPM */
static const char *bitcoin32_xpm[] = {
/* columns rows colors chars-per-pixel */
"32 32 187 2",
"N. c #E1D8A5",
".  c Black",
"&  c #FCFBF4",
"r  c #E4DFA1",
"^. c #D2BD77",
"c  c #F5F4DD",
"k  c #F5F4DE",
"W  c #C5A25E",
"d. c #C5A25F",
">. c #DFD596",
"&. c #CB8A4F",
"x. c #CDB36D",
"0  c #F0EACE",
"@  c #64502A",
"m  c #E2DC97",
"o  c #E2DC9A",
"Q  c #C8A965",
"`  c #E2DC9D",
"   c #FFFFFF",
"o. c #D0BA74",
" . c #AA8B4F",
"s  c #BCA767",
")  c #BB8E4D",
"i. c #D8CB84",
"$  c #C39F5C",
"K. c #C2894B",
"N  c #67542E",
"#  c #916E3A",
"J  c #E7E0B2",
"f. c #BE9552",
"}  c #BE9553",
"k. c #C78A4D",
";. c #E7E3C1",
"+  c #D3BE78",
"f  c #BE9250",
"Y. c #C6A35F",
"A. c #C0894B",
"e  c #EAE7B6",
":. c #EAE7B8",
"). c #CEB46E",
"/  c #796438",
"-  c #D6C57E",
"=  c #EFEECA",
">  c #DED68E",
"_. c #DEDCA6",
"!. c #D1BB75",
"XX c #DEDCAC",
"Z  c #E8E4AF",
"u. c #D9CC85",
"'. c #E8E4B4",
"C. c #CCB16B",
"!  c #CCB16C",
"D  c #DED397",
"j  c #EDEBC5",
"M. c #6D562D",
"<. c #DCD38B",
"2. c #FEFDFA",
"4  c #C7A764",
"r. c #CAB470",
"V  c #C18A4B",
"-. c #BA8C4B",
"h  c #E1DAA1",
"4. c #E3D7AD",
"T  c #D7C982",
"5  c #8B6B38",
"B. c #C29D5A",
"F  c #E1D79B",
"g. c #BA8949",
"A  c #D7C680",
"y. c #D7C682",
"M  c #B4A771",
"(. c #D6B072",
"U  c #8E784F",
"g  c #A7894E",
"<  c #D2BC76",
"J. c #C9955B",
"~. c #E6DEBA",
"H  c #E4DEA5",
"V. c #C09A57",
"b. c #CDB26D",
"E  c #C5A162",
"w  c #EEECC7",
"W. c #CC9C60",
"L  c #EBE5D4",
"t. c #DDD48C",
"Y  c #D08A51",
"O. c #C98C50",
"/. c #D6A468",
"w. c #E2DB9F",
"~  c #D0B974",
"{  c #BB8D4C",
"u  c #D8CA83",
"(  c #C39E5A",
"L. c #C09154",
"l. c #CE8A50",
"[. c #DBA571",
"Q. c #D3C079",
"X  c #F1F0D1",
"I. c #BE9452",
"F. c #765C30",
"]. c #E6C9A3",
"H. c #CC8D53",
"a. c #CEB671",
"6  c #B98A49",
"5. c #F6F4E2",
"}. c #DDDDD5",
"n. c #CEB36E",
"S  c #DBCE8E",
"^  c #CCBC78",
"t  c #DED88F",
"%  c #EFEDC8",
"C  c #D6CA95",
"7  c #BFA775",
"3  c #DED58E",
"S. c #BC9151",
"8. c #ECE0C9",
"B  c #C5BB7A",
"E. c #CA8A50",
"R  c #CCB06B",
"0. c #EDEAC2",
"$. c #ACA170",
"8  c #E0D5B7",
"Z. c #D3B17B",
"P  c #BF9E6D",
"a  c #D4C17B",
"p. c #C7A966",
"y  c #DCD289",
"*  c #DCD28A",
",  c #C7A662",
"@. c #B08345",
"b  c #EBE7B9",
"|  c #C29C59",
"%. c #DFD990",
" X c #E3D09E",
".. c #66512B",
"P. c #CAAD68",
"v  c #F0EECB",
"d  c #91814E",
"m. c #BF894A",
"3. c #F5F5DF",
"'  c #D4B881",
"h. c #C48A4C",
"l  c #FAF9EC",
"z. c #98733D",
"=. c #C8AA66",
"p  c #D5C27D",
"T. c #DFD39E",
"G. c #D08951",
"1  c #E4DAAC",
",. c #E7E1AD",
"*. c #D8C982",
"9. c #CEBE79",
"v. c #CBAE6A",
"q. c #FDFDF8",
"s. c #D3BF78",
"n  c #E5E1A8",
"#. c #806334",
":  c #F6F6E1",
"+. c #D38A52",
"`. c #F6F6E3",
"c. c #C19D5A",
"_  c #AA7D43",
"D. c #B98948",
"i  c #D6C680",
"e. c #E5DEAC",
"R. c #C19A57",
"7. c #F6F3E3",
"x  c #FBFAEF",
";  c #E3DE9F",
"]  c #C89861",
"O  c #D9CD85",
"K  c #EAE2C0",
"X. c #7C693D",
"[  c #BC8D4D",
"I  c #92703A",
"{. c #DEDDBF",
"z  c #FEFEFB",
"q  c #F2F0D2",
"|. c #DEDABB",
"9  c #EFE6D4",
"2  c #F2F0D7",
"U. c #BA8D4C",
".X c #DEDDCB",
"G  c #E1D89D",
"1. c #CFB673",
"6. c #EBE9BF",
"j. c #CD8A50",
/* pixels */
"                                                                ",
"                                                                ",
"                                                                ",
"        . . . . . . . . X o O + @ # $ . . . . . . . . .         ",
"        . . . . . . % & X o O + @ # $ * = . . . . . . .         ",
"        . . . . - ; % & X . O + @ # $ * = : > . . . . .         ",
"        . . . , - ; % . X o O + @ # $ < 1 2 3 + 4 . . .         ",
"        . 5 6 7 8 9 0 q w e r t y u i p a s d + 4 f . .         ",
"        @ 5 6 g h j X k l z x c v b n m M N B . 4 f V .         ",
"        @ 5 . , C Z A S D F G H J K L P I U > + 4 f V Y         ",
"        @ 5 6 , - T R E W Q ! ~ a ^ / ( ) _ > + 4 . V Y         ",
"        @ . 6 , . ` ' ] [ { } |  ...X.o.Q O.+.+ 4 f V Y         ",
"        @ . 6 , . ; % . . . . . @.#.$.%.+ &.+.. 4 f V Y         ",
"        @ . 6 , . ; % . . . . *.=.-.;.:.>.. . . . . . .         ",
"        @ . 6 , . ; % . . . . ,.<.1.2.3.4.. . . . . . .         ",
"        @ . 6 , . ; % . . . . 5.6.o v 7.8.. . . . . . .         ",
"        @ . 6 , . ; % . . . 9.0.q.w.m e.. . . . . . . .         ",
"        @ . 6 , - ; % . . . r.t.b y.u.i.. . . . . . . .         ",
"        @ . 6 , - ; % . . . p.a O a.s.+ d.f.g.h.j.. k.l.        ",
"        @ 5 6 , - z.f.x.t.. c.v.b.Q n.! d.f.g.h.j.m.k.l.        ",
"        @ 5 . @ M.z.f.x.t.N.) B.V.B.C.! d.. g.h.j.m.k.l.        ",
"        @ . . @ M.z.f.x.t.Z.A.S.D.f Q . d.f.g.h.. m.k.l.        ",
"        . @ F.z.. z.f.x.t.G.H.J.K.L.P.! d.f.g.I.6 m.k..         ",
"        . @ F.z.U.Y.f.x.t.T.} R.E.W.Q.! d.Q ( I.6 m.. .         ",
"        . . . z.U.Y.!.t.t.e ~.^./.(.Q.. ).Q ( I.. . . .         ",
"        . . . . . Y.!.t._.. `.'.].[.u s.).Q ( . . . . .         ",
"        . . . . . . . t._.{.}.|. X> u s.).. . . . . . .         ",
"        . . . . . . . . _.{.}..XXX> u . . . . . . . . .         ",
"                                                                ",
"                                                                ",
"                                                                ",
"                                                                "
};
