/* XPM */
static const char *convert_xpm[] = {
/* columns rows colors chars-per-pixel */
"16 16 86 1",
"7 c #D7C785",
". c Black",
"S c #755C30",
"~ c #DCCE95",
"& c #F0EDCB",
"Q c #D2BD76",
"m c #C5A562",
"B c #C5A25E",
"l c #F0EAD1",
"+ c #64502A",
"Y c #BD8B4B",
"; c #B18C52",
"< c #E2DC98",
"3 c #BCAA6E",
"i c #B29F63",
"  c #FFFFFF",
"N c #D0BA75",
"C c #C98A4F",
"P c #BB8E4D",
"w c #91713E",
"a c #DDCF89",
"u c #806839",
"Z c #C78A4D",
"> c #F1EED0",
"s c #DBD290",
"f c #EAE7BF",
"X c #EFEECA",
"* c #DED68E",
"1 c #D9CF88",
"O c #D9CC84",
"` c #DED9A8",
"- c #68522B",
"b c #BF9653",
"n c #DCD38A",
"4 c #C3B978",
"5 c #C18A4B",
"g c #DCD08B",
"q c #C7B089",
"$ c #BA8C4B",
"G c #BF9052",
"% c #D7C67F",
"x c #E6DEB1",
"c c #DAD088",
"9 c #DFD794",
"r c #D9C08E",
"v c #A08B54",
"z c #D5C67F",
"U c #DACA84",
"I c #C09754",
"j c #E7E2AB",
"/ c #D8CA83",
"W c #C39E5A",
"F c #D5B472",
"K c #B98A49",
"^ c #DCB279",
"( c #CEB36E",
"_ c #DDDDD7",
"D c #6F582E",
"E c #C9A964",
"H c #BC9150",
"! c #DEDBA6",
") c #DEDBA7",
"d c #C49F5C",
"0 c #E8E3BA",
"A c #66512B",
"8 c #DCCF92",
"2 c #D7C57E",
": c #E8E0CA",
"# c #F0EECC",
"o c #F0EECE",
"L c #785E31",
"k c #F3F2D7",
"= c #C8A763",
"V c #BB8949",
"M c #CBAE69",
"h c #F3EFE0",
"R c #D3BF78",
"t c #BE9354",
"T c #CA9559",
"y c #C19A57",
"6 c #E0D7AD",
"@ c #C4A15D",
"J c #CCB26C",
"e c #D9CA87",
"p c #C49856",
", c #EBE9BD",
/* pixels */
"                ",
"                ",
" ...XoO+@#...   ",
" .$%XoO+@&*=.   ",
" -;:>,<1234=5   ",
" -$67890qw*=5   ",
" -$ertyuipa=5   ",
" -$%X.sdfg...   ",
" -$%X.hjkl...   ",
" -$%X.zxc....   ",
" -$vbnmMNBVCZ   ",
" ASDbFGHJBVKZ   ",
" +LPIUYTREWKZ   ",
" ..PQ!~^/(W..   ",
" ...Q)_`/....   ",
"                "
};
